:SAMPLES-PER-SECOND 30
:FULLY-SPECIFIED
:DEGREES
807
root  46.8557 38.4013 -22.5338 -4.4213 -18.916 2.55234
RightUpLeg  -9.78997 -12.4497 10.2689
RightLeg  22.9058 -16.1947 -3.36917
RightFoot  -14.5641 -0.584666 -17.1563
RightToes  -4.65663e-010 0 -3.6325e-017
Spine  6.33351 -3.24575 7.69158
Spine1  4.36466 -2.5448 1.97549
HEad  -1.05239 -20.8394 3.47738
LeftShoulder1  8.10231 -11.5511 -46.9527
LeftArm  -9.27851 12.0867 -17.8733
LeftForeArm  23.5401 -20.0298 -3.69026
LeftHand  -0.244104 0.0205437 5.32207
RightShoulder  5.68482 8.7944 40.0817
RightArm  1.68592 -14.9494 34.0779
RightForeArm  7.49402 21.34 4.68102
RightHand  -0.75385 1.45103 -12.916
LeftUpLeg  -9.96457 13.2656 7.55372
LeftLeg  66.4634 2.23387 6.33482
LeftFoot  10.165 1.44563 -7.91977
LeftToes  -7.27628e-011 -1.6005e-012 -1.37987e-011
808
root  46.6768 38.6199 -21.4791 -4.9101 -25.1244 3.51678
RightUpLeg  -6.72933 -9.11117 9.11426
RightLeg  21.5289 -13.4834 -2.03909
RightFoot  -14.9932 -0.640492 -16.7886
RightToes  -4.65663e-010 0 -3.6325e-017
Spine  6.28858 -2.50597 7.7753
Spine1  4.53119 -1.53072 0.772028
HEad  -0.254345 -19.1096 3.19407
LeftShoulder1  8.12474 -11.516 -47.1971
LeftArm  -9.67918 14.0677 -18.7684
LeftForeArm  22.6184 -18.3299 -3.86857
LeftHand  -0.244104 0.0205437 5.32207
RightShoulder  5.68316 8.85785 39.844
RightArm  4.62848 -12.3643 35.2701
RightForeArm  8.97392 25.6248 4.97346
RightHand  -0.693525 1.03431 -12.6407
LeftUpLeg  -13.4095 11.8607 6.63208
LeftLeg  66.2866 3.57383 9.54609
LeftFoot  7.62992 0.641341 -4.0819
LeftToes  -7.27628e-011 -1.6005e-012 -1.37987e-011
809
root  46.4418 38.8684 -20.4524 -5.36401 -31.3755 4.78647
RightUpLeg  -3.97798 -6.82759 7.64481
RightLeg  19.7043 -9.81775 -0.420672
RightFoot  -15.14 -0.661424 -16.7403
RightToes  -4.65663e-010 0 -3.6325e-017
Spine  6.0605 -1.66137 7.80018
Spine1  4.6062 -0.438623 -0.652575
HEad  0.108383 -17.5237 2.82481
LeftShoulder1  8.18758 -11.5676 -47.4035
LeftArm  -10.0204 15.7786 -19.5948
LeftForeArm  21.9956 -16.4863 -4.10303
LeftHand  -0.244104 0.0205437 5.32207
RightShoulder  5.74088 8.95728 39.9351
RightArm  6.44299 -10.3036 35.7824
RightForeArm  9.99633 30.4482 6.10098
RightHand  -0.642538 0.54728 -12.6419
LeftUpLeg  -16.4486 10.5282 5.51322
LeftLeg  63.8944 5.22131 12.0822
LeftFoot  4.33621 0.033362 -0.454218
LeftToes  -7.27628e-011 -1.6005e-012 -1.37987e-011
810
root  46.1582 39.1021 -19.4689 -5.78531 -37.7492 6.71521
RightUpLeg  -2.24777 -5.68315 5.76865
RightLeg  18.3051 -4.46522 0.857377
RightFoot  -15.14 -0.654881 -16.549
RightToes  -4.65663e-010 0 -3.6325e-017
Spine  5.29409 -0.610166 7.36309
Spine1  4.77761 0.778926 -2.08153
HEad  -0.0177251 -15.8844 2.70361
LeftShoulder1  8.24072 -11.6289 -47.5204
LeftArm  -10.5749 17.1277 -20.4972
LeftForeArm  22.2685 -14.6268 -4.2895
LeftHand  -0.244104 0.0205437 5.32207
RightShoulder  5.85186 9.12197 40.1992
RightArm  8.37942 -8.43244 35.9593
RightForeArm  10.1827 34.8516 7.22945
RightHand  -0.606929 0.199103 -12.6595
LeftUpLeg  -19.3295 9.92822 4.14661
LeftLeg  59.3523 6.50155 12.253
LeftFoot  0.988663 -0.0567375 0.418037
LeftToes  -7.27628e-011 -1.6005e-012 -1.37987e-011
811
root  45.8305 39.2755 -18.5103 -6.75275 -43.53 8.78891
RightUpLeg  -0.624537 -4.96766 3.88869
RightLeg  17.3842 0.998407 1.5491
RightFoot  -15.3124 -0.673044 -16.3183
RightToes  -4.65663e-010 0 -3.6325e-017
Spine  4.8917 0.145736 6.7378
Spine1  4.86594 1.64042 -3.24701
HEad  -0.522819 -14.0112 2.73397
LeftShoulder1  8.28676 -11.6602 -47.6901
LeftArm  -11.2656 18.375 -21.4066
LeftForeArm  22.8997 -13.2889 -4.31478
LeftHand  -0.244104 0.0205437 5.32207
RightShoulder  5.91551 9.2427 40.2565
RightArm  10.2724 -6.47378 36.3744
RightForeArm  10.7479 37.9547 8.08394
RightHand  -0.574947 -0.0648469 -12.5693
LeftUpLeg  -21.4073 9.58406 3.0215
LeftLeg  52.8129 6.54972 9.67429
LeftFoot  -0.766236 0.0747128 -0.750527
LeftToes  -7.27628e-011 -1.6005e-012 -1.37987e-011
